<svg width="32" height="32" viewBox="0 0 32 32" fill="none" xmlns="http://www.w3.org/2000/svg">
<path d="M26.1863 12.2517L19.7385 12.3525L19.6004 7.64191C19.5903 5.53517 18.3612 3.84399 16.2032 3.8418C6.10695 4.06536 5.88383 3.67128 4.52756 4.3275C3.92394 4.4818 3.18049 5.04947 2.91046 5.34404C1.51035 6.87084 1.81895 8.5024 1.87945 10.5403C1.94651 12.7974 1.53095 15.9527 5.18816 16.3937L5.20394 16.3985C5.35868 17.344 5.51342 18.4522 5.6686 19.3675L6.11353 19.7756C6.1347 19.8235 6.16713 19.8657 6.20805 19.8984C6.24898 19.9311 6.29719 19.9535 6.34861 19.9636C6.40002 19.9737 6.45312 19.9712 6.50339 19.9565C6.55366 19.9417 6.59962 19.915 6.63736 19.8786C7.90684 18.6674 9.32054 17.7263 10.807 16.6479L11.9564 16.6422C11.9399 16.9886 11.9342 17.3353 11.9393 17.682C11.9717 19.659 11.4755 22.7336 13.4165 24.3963C14.1512 25.0258 15.5075 25.312 16.6157 25.1766L21.3433 25.0832L25.0027 28.1245C25.3885 28.1701 25.7795 28.1662 26.1661 28.125C26.2127 28.1366 26.2613 28.1376 26.3084 28.128C26.3554 28.1183 26.3997 28.0983 26.438 28.0692C26.4763 28.0402 26.5075 28.003 26.5295 27.9603C26.5515 27.9176 26.5636 27.8705 26.565 27.8225C26.6097 26.7345 26.6996 25.8639 26.7636 24.8123C28.7029 24.612 30.245 22.9458 30.1894 20.9039L30.071 15.9746C30.014 13.8696 28.2396 12.2083 26.1859 12.2521L26.1863 12.2517ZM10.5054 16.054C9.24208 16.9754 7.90684 17.8696 6.6961 18.9344C6.64131 18.0222 6.6023 17.1415 6.52251 16.1706C6.5157 16.0884 6.47825 16.0118 6.4176 15.9559C6.35695 15.9001 6.27752 15.869 6.19506 15.869H6.18673C5.77205 15.87 5.36127 15.789 4.97808 15.6305C4.5949 15.4719 4.2469 15.2391 3.95419 14.9454C3.65766 14.6508 3.42259 14.3003 3.26261 13.9142C3.10263 13.5281 3.02092 13.1141 3.02224 12.6962L3.01304 7.76552C3.01304 6.0384 4.42016 4.61944 6.15123 4.60234C19.8323 4.46295 15.2958 4.49933 16.2404 4.49933C17.986 4.49933 18.9346 5.91391 18.9429 7.6533L19.0805 12.363C16.2935 12.4331 16.009 12.3455 15.2905 12.5164C14.2095 12.6019 12.6727 13.2064 12.2602 14.6258C12.1304 15.0729 12.0541 15.5266 12.0055 15.9843C10.7009 16.0101 10.6549 15.9444 10.5054 16.054ZM26.444 24.1745C26.3613 24.1766 26.2824 24.2098 26.2231 24.2675C26.1638 24.3252 26.1284 24.4031 26.124 24.4857C26.0714 25.4479 25.9925 26.2742 25.9421 27.1203C24.7257 26.1164 23.4615 25.3831 22.1398 24.4717C22.018 24.3871 22.491 24.4007 16.3483 24.5243C14.6124 24.555 13.1518 23.186 13.1171 21.4181L13.0163 16.2981C13.0078 15.8809 13.0818 15.4661 13.2341 15.0775C13.3864 14.689 13.614 14.3344 13.9038 14.0341C14.1936 13.7338 14.5398 13.4937 14.9227 13.3277C15.3056 13.1616 15.7175 13.0729 16.1348 13.0666L26.1968 12.9096C27.9441 12.8746 29.3674 14.2655 29.4143 15.9913L29.5318 20.9206C29.5434 21.3372 29.4726 21.7519 29.3236 22.1411C29.1745 22.5302 28.9501 22.8861 28.6633 23.1884C28.3764 23.4907 28.0328 23.7334 27.6519 23.9026C27.2711 24.0718 26.8606 24.1642 26.444 24.1745Z" fill="#FE6508"/>
<path d="M23.7234 14.2246C21.2971 14.2246 19.3223 16.1994 19.3223 18.6257C19.3223 21.052 21.2971 23.0264 23.7234 23.0264C26.1497 23.0264 28.124 21.052 28.124 18.6253C28.124 16.1985 26.1497 14.225 23.7229 14.225L23.7234 14.2246ZM23.7234 22.3688C21.6596 22.3688 19.9798 20.6895 19.9798 18.6253C19.9798 16.561 21.6596 14.8826 23.7234 14.8826C25.7871 14.8826 27.4665 16.5615 27.4665 18.6257C27.4665 20.6899 25.7876 22.3688 23.7234 22.3688Z" fill="#FE6508"/>
<path d="M22.9413 17.2982C22.9621 17.337 22.9906 17.3712 23.0249 17.3988C23.0593 17.4264 23.0988 17.4468 23.1412 17.4588C23.1836 17.4708 23.228 17.4742 23.2717 17.4687C23.3154 17.4632 23.3576 17.449 23.3957 17.4269C23.4338 17.4048 23.4671 17.3753 23.4936 17.34C23.52 17.3048 23.5392 17.2647 23.5498 17.2219C23.5605 17.1792 23.5624 17.1347 23.5555 17.0912C23.5487 17.0477 23.5331 17.006 23.5098 16.9686C22.9838 16.0612 21.588 16.2935 21.3991 17.3381C21.3915 17.3806 21.3923 17.4242 21.4014 17.4664C21.4106 17.5086 21.4281 17.5486 21.4527 17.5841C21.4774 17.6196 21.5087 17.6498 21.5451 17.6732C21.5814 17.6965 21.622 17.7125 21.6645 17.7201C21.7504 17.7356 21.8389 17.7163 21.9105 17.6665C21.946 17.6419 21.9763 17.6105 21.9996 17.5742C22.023 17.5378 22.0389 17.4972 22.0466 17.4547C22.1255 17.0194 22.7159 16.9112 22.9413 17.2982ZM25.5587 16.6324C25.0375 16.5723 24.5145 16.8792 24.3155 17.3666C24.2826 17.4474 24.2831 17.538 24.317 17.6184C24.3509 17.6988 24.4153 17.7624 24.4961 17.7953C24.5769 17.8282 24.6675 17.8277 24.7479 17.7938C24.8283 17.7599 24.8919 17.6955 24.9248 17.6147C25.0103 17.403 25.2602 17.2579 25.4815 17.2859C25.7082 17.3123 25.9124 17.5099 25.9471 17.7357C25.9536 17.7784 25.9685 17.8194 25.9908 17.8563C26.0132 17.8932 26.0426 17.9254 26.0774 17.951C26.1122 17.9765 26.1517 17.995 26.1937 18.0053C26.2356 18.0156 26.2792 18.0175 26.3219 18.011C26.3645 18.0045 26.4055 17.9896 26.4425 17.9672C26.4794 17.9448 26.5116 17.9154 26.5371 17.8806C26.5627 17.8458 26.5811 17.8063 26.5914 17.7644C26.6017 17.7224 26.6037 17.6789 26.5971 17.6362C26.5551 17.3794 26.4313 17.1431 26.2442 16.9622C26.0571 16.7814 25.8167 16.6657 25.5587 16.6324ZM24.9318 18.7571C24.8893 18.7643 24.8485 18.7798 24.812 18.8028C24.7754 18.8258 24.7437 18.8557 24.7187 18.8909C24.6937 18.9261 24.6759 18.9659 24.6663 19.008C24.6567 19.0501 24.6554 19.0937 24.6627 19.1363C24.8621 20.3189 22.8299 20.5118 22.7672 19.0438C22.7602 18.8627 22.6011 18.7154 22.4249 18.7295C22.3378 18.7332 22.2558 18.7714 22.1969 18.8356C22.1379 18.8998 22.1069 18.9847 22.1106 19.0718C22.2083 21.3995 25.6762 21.1759 25.3106 19.0267C25.3035 18.9841 25.288 18.9433 25.2651 18.9067C25.2422 18.8701 25.2123 18.8384 25.1771 18.8134C25.1419 18.7884 25.1021 18.7706 25.06 18.761C25.0179 18.7514 24.9744 18.7498 24.9318 18.7571ZM8.1875 6.05176C5.98169 6.05176 4.1875 7.84639 4.1875 10.0522C4.1875 12.258 5.98169 14.0522 8.1875 14.0522C10.3933 14.0522 12.1879 12.258 12.1879 10.0522C12.1879 7.84639 10.3937 6.05176 8.1875 6.05176ZM8.1875 13.3947C6.34421 13.3947 4.84503 11.8955 4.84503 10.0522C4.84503 8.20891 6.34421 6.70929 8.1875 6.70929C10.0308 6.70929 11.5304 8.20891 11.5304 10.0522C11.5304 11.895 10.0312 13.3947 8.1875 13.3947Z" fill="#FE6508"/>
<path d="M6.85112 9.65282C7.23468 9.41041 7.23205 8.8892 6.84499 8.65118C6.76535 8.59997 6.67461 8.56855 6.58036 8.55955C6.48611 8.55055 6.39107 8.56423 6.30318 8.59945C6.07742 8.69194 5.91655 8.92603 5.94899 9.21973C5.9994 9.67299 6.47238 9.89304 6.85112 9.65282ZM9.28137 8.57841C9.16389 8.60829 9.05791 8.67235 8.97684 8.76247C8.89577 8.85259 8.84325 8.96474 8.82592 9.08471C8.77112 9.42575 8.97847 9.80449 9.43699 9.80449C9.78942 9.80449 9.99326 9.5371 10.0187 9.25655C10.0665 8.73271 9.48389 8.52537 9.28137 8.57841ZM6.46011 11.2506C6.43591 11.2873 6.41932 11.3285 6.41132 11.3718C6.40332 11.415 6.40407 11.4594 6.41353 11.5023C6.42299 11.5453 6.44097 11.5859 6.4664 11.6217C6.49184 11.6576 6.5242 11.688 6.56159 11.7112C6.59898 11.7343 6.64063 11.7497 6.68408 11.7564C6.72752 11.7632 6.77188 11.7612 6.81453 11.7505C6.85718 11.7398 6.89725 11.7207 6.93238 11.6942C6.9675 11.6678 6.99696 11.6345 7.01901 11.5965C7.51918 10.7886 8.69353 10.8105 9.17047 11.618C9.21627 11.6901 9.28833 11.7415 9.3714 11.7614C9.45446 11.7813 9.54201 11.7681 9.6155 11.7245C9.68899 11.681 9.74265 11.6106 9.76514 11.5282C9.78762 11.4458 9.77715 11.3579 9.73595 11.2831C9.01266 10.0579 7.22197 10.0206 6.46011 11.2506ZM13.0013 8.67222H16.5292C16.6163 8.67222 16.7 8.63758 16.7616 8.57592C16.8233 8.51427 16.8579 8.43065 16.8579 8.34345C16.8579 8.25626 16.8233 8.17263 16.7616 8.11098C16.7 8.04932 16.6163 8.01468 16.5292 8.01468H13.0013C12.9141 8.01468 12.8304 8.04932 12.7688 8.11098C12.7071 8.17263 12.6725 8.25626 12.6725 8.34345C12.6725 8.43065 12.7071 8.51427 12.7688 8.57592C12.8304 8.63758 12.9141 8.67222 13.0013 8.67222ZM15.9369 10.4458H13.4997C13.4125 10.4458 13.3289 10.4804 13.2672 10.5421C13.2055 10.6038 13.1709 10.6874 13.1709 10.7746C13.1709 10.8618 13.2055 10.9454 13.2672 11.007C13.3289 11.0687 13.4125 11.1033 13.4997 11.1033H15.9369C16.3718 11.1033 16.3722 10.4458 15.9369 10.4458ZM17.8525 16.8975C17.8525 16.8103 17.8179 16.7267 17.7563 16.6651C17.6946 16.6034 17.611 16.5688 17.5238 16.5688H14.4369C14.3497 16.5688 14.2661 16.6034 14.2044 16.6651C14.1427 16.7267 14.1081 16.8103 14.1081 16.8975C14.1081 16.9847 14.1427 17.0684 14.2044 17.13C14.2661 17.1917 14.3497 17.2263 14.4369 17.2263H17.5238C17.611 17.2263 17.6946 17.1917 17.7563 17.13C17.8179 17.0684 17.8525 16.9847 17.8525 16.8975ZM17.5812 19.0683H15.3105C14.8752 19.0683 14.8752 19.7258 15.3105 19.7258H17.5812C17.6684 19.7258 17.752 19.6912 17.8137 19.6295C17.8753 19.5679 17.91 19.4842 17.91 19.397C17.91 19.3098 17.8753 19.2262 17.8137 19.1646C17.752 19.1029 17.6684 19.0683 17.5812 19.0683ZM22.0345 7.74071C22.0616 7.12482 22.1559 6.50893 22.315 5.91145C22.4268 5.49107 21.7921 5.32186 21.6794 5.74181C21.5078 6.38576 21.4067 7.04643 21.3778 7.71222C21.3585 8.14619 22.0156 8.17644 22.0345 7.74071ZM23.524 8.7292L25.5334 6.61063C25.8328 6.29501 25.3559 5.84175 25.0565 6.15781L23.0471 8.27638C22.987 8.33963 22.9546 8.42414 22.9568 8.51132C22.9591 8.5985 22.9959 8.68121 23.0591 8.74126C23.1224 8.80131 23.2069 8.83377 23.2941 8.83151C23.3812 8.82925 23.464 8.79245 23.524 8.7292ZM25.0977 10.2661L27.2189 9.80186C27.262 9.79357 27.3029 9.77674 27.3394 9.75236C27.3759 9.72799 27.4071 9.69657 27.4312 9.65995C27.4554 9.62333 27.4719 9.58225 27.4799 9.53913C27.488 9.49601 27.4873 9.45172 27.4779 9.40887C27.4685 9.36603 27.4507 9.32548 27.4254 9.28963C27.4002 9.25378 27.368 9.22335 27.3308 9.20013C27.2936 9.17691 27.2521 9.16137 27.2088 9.15442C27.1655 9.14747 27.1212 9.14925 27.0786 9.15967L24.957 9.62389C24.5375 9.71507 24.6668 10.3603 25.0977 10.2661Z" fill="#FE6508"/>
</svg>
